<?xml version="1.0" encoding="utf-8"?>
<!-- Generator: Adobe Illustrator 25.4.1, SVG Export Plug-In . SVG Version: 6.00 Build 0)  -->
<svg version="1.1" id="レイヤー_1" xmlns="http://www.w3.org/2000/svg" xmlns:xlink="http://www.w3.org/1999/xlink" x="0px"
	 y="0px" viewBox="0 0 128 128" style="enable-background:new 0 0 128 128;" xml:space="preserve">
<style type="text/css">
	.st0{fill:#0146B3;}
	.st1{fill:#FFFFFF;}
</style>
<path class="st0" d="M105.2,128H22.8C10.2,128,0,117.8,0,105.2V22.8C0,10.2,10.2,0,22.8,0h82.4C117.8,0,128,10.2,128,22.8v82.4
	C128,117.8,117.8,128,105.2,128z"/>
<g>
	<path class="st1" d="M16.8,55.8v4.9h6.6v3.1h-6.6V69h7.4v3.2H12.8V52.6h11.3v3.2H16.8z"/>
	<path class="st1" d="M26.7,54.1c-0.5-0.4-0.7-1-0.7-1.6s0.2-1.2,0.7-1.6c0.5-0.4,1-0.7,1.7-0.7c0.7,0,1.3,0.2,1.7,0.7
		c0.5,0.4,0.7,1,0.7,1.6s-0.2,1.2-0.7,1.6c-0.5,0.4-1,0.7-1.7,0.7C27.8,54.8,27.2,54.6,26.7,54.1z M30.4,56.6v15.5h-3.9V56.6H30.4z"
		/>
	<path class="st1" d="M42.1,57.1c0.9,0.5,1.6,1.1,2.1,1.8v-2.2h3.9v15.6c0,1.4-0.3,2.7-0.9,3.8c-0.6,1.1-1.4,2-2.6,2.7
		c-1.2,0.7-2.6,1-4.2,1c-2.2,0-4-0.5-5.4-1.5c-1.4-1-2.2-2.4-2.4-4.2h3.9c0.2,0.7,0.6,1.3,1.3,1.7c0.7,0.4,1.5,0.6,2.5,0.6
		c1.1,0,2.1-0.3,2.8-1c0.7-0.7,1.1-1.7,1.1-3.1v-2.4c-0.5,0.7-1.2,1.3-2.1,1.8c-0.9,0.5-1.9,0.7-3,0.7c-1.3,0-2.5-0.3-3.6-1
		s-1.9-1.6-2.6-2.8S32,65.9,32,64.3c0-1.6,0.3-3,0.9-4.2s1.5-2.1,2.5-2.8c1.1-0.7,2.3-1,3.6-1C40.2,56.4,41.3,56.6,42.1,57.1z
		 M43.6,61.9c-0.4-0.7-0.9-1.2-1.5-1.6c-0.6-0.4-1.3-0.5-2-0.5s-1.4,0.2-2,0.5c-0.6,0.4-1.1,0.9-1.5,1.6c-0.4,0.7-0.6,1.5-0.6,2.4
		s0.2,1.8,0.6,2.4c0.4,0.7,0.9,1.2,1.5,1.6c0.6,0.4,1.3,0.6,2,0.6c0.7,0,1.4-0.2,2-0.5c0.6-0.4,1.1-0.9,1.5-1.6s0.6-1.5,0.6-2.5
		S44,62.6,43.6,61.9z"/>
	<path class="st1" d="M53.6,71.4c-1.2-0.7-2.1-1.6-2.8-2.8c-0.7-1.2-1-2.6-1-4.2s0.3-3,1-4.2c0.7-1.2,1.7-2.2,2.9-2.8
		c1.2-0.7,2.6-1,4.1-1c1.5,0,2.8,0.3,4.1,1C63,58,64,59,64.7,60.2c0.7,1.2,1.1,2.6,1.1,4.2s-0.4,3-1.1,4.2c-0.7,1.2-1.7,2.2-2.9,2.8
		c-1.2,0.7-2.6,1-4.1,1C56.1,72.4,54.8,72.1,53.6,71.4z M59.6,68.5c0.6-0.3,1.1-0.9,1.5-1.6c0.4-0.7,0.6-1.5,0.6-2.5
		c0-1.5-0.4-2.6-1.2-3.4c-0.8-0.8-1.7-1.2-2.8-1.2s-2.1,0.4-2.8,1.2c-0.8,0.8-1.1,1.9-1.1,3.4s0.4,2.6,1.1,3.4
		c0.7,0.8,1.7,1.2,2.8,1.2C58.3,69,59,68.8,59.6,68.5z"/>
	<path class="st1" d="M70.9,68.9h6.9v3.2H66.5V69l6.8-9.1h-6.7v-3.2h11.3v3.2L70.9,68.9z"/>
	<path class="st1" d="M80.4,54.1c-0.5-0.4-0.7-1-0.7-1.6s0.2-1.2,0.7-1.6c0.5-0.4,1-0.7,1.7-0.7s1.3,0.2,1.7,0.7
		c0.5,0.4,0.7,1,0.7,1.6s-0.2,1.2-0.7,1.6c-0.5,0.4-1,0.7-1.7,0.7S80.9,54.6,80.4,54.1z M84.1,56.6v15.5h-3.9V56.6H84.1z"/>
	<path class="st1" d="M90.6,51.4v20.7h-3.9V51.4H90.6z"/>
	<path class="st1" d="M97.1,51.4v20.7h-3.9V51.4H97.1z"/>
	<path class="st1" d="M99.9,60.2c0.6-1.2,1.5-2.1,2.5-2.8c1.1-0.7,2.3-1,3.6-1c1.2,0,2.2,0.2,3,0.7c0.9,0.5,1.6,1.1,2.1,1.8v-2.2
		h3.9v15.5h-3.9v-2.3c-0.5,0.7-1.2,1.3-2.1,1.8c-0.9,0.5-1.9,0.7-3.1,0.7c-1.3,0-2.5-0.3-3.6-1c-1.1-0.7-1.9-1.6-2.5-2.8
		c-0.6-1.2-0.9-2.6-0.9-4.2C99,62.8,99.3,61.4,99.9,60.2z M110.6,61.9c-0.4-0.7-0.9-1.2-1.5-1.6c-0.6-0.4-1.3-0.5-2-0.5
		c-0.7,0-1.4,0.2-2,0.5c-0.6,0.4-1.1,0.9-1.5,1.6c-0.4,0.7-0.6,1.5-0.6,2.4s0.2,1.8,0.6,2.4c0.4,0.7,0.9,1.2,1.5,1.6
		c0.6,0.4,1.3,0.6,2,0.6c0.7,0,1.4-0.2,2-0.5c0.6-0.4,1.1-0.9,1.5-1.6c0.4-0.7,0.6-1.5,0.6-2.5S111,62.6,110.6,61.9z"/>
</g>
</svg>
