<?xml version="1.0" encoding="utf-8"?>
<!-- Generator: Adobe Illustrator 25.4.1, SVG Export Plug-In . SVG Version: 6.00 Build 0)  -->
<svg version="1.1" id="レイヤー_1" xmlns="http://www.w3.org/2000/svg" xmlns:xlink="http://www.w3.org/1999/xlink" x="0px"
	 y="0px" viewBox="0 0 128 128" style="enable-background:new 0 0 128 128;" xml:space="preserve">
<style type="text/css">
	.st0{fill:#0146B3;}
	.st1{fill:none;stroke:#FFFFFF;stroke-width:10;stroke-miterlimit:10;}
	.st2{fill:#FFFFFF;}
</style>
<path class="st0" d="M105.2,128H22.8C10.2,128,0,117.8,0,105.2V22.8C0,10.2,10.2,0,22.8,0h82.4C117.8,0,128,10.2,128,22.8v82.4
	C128,117.8,117.8,128,105.2,128z"/>
<path class="st1" d="M106,64c0,23.2-18.8,42-42,42S22,87.2,22,64s18.8-42,42-42c5.7,0,10.3,1.2,12.5,1.9c6.4,2,12.2,5.6,16.9,10.3"
	/>
<polygon class="st2" points="107.6,69 64,69 64,59 111,59 111,64 "/>
</svg>
